<svg width="56" height="56" viewBox="0 0 56 56" fill="none" xmlns="http://www.w3.org/2000/svg">
<g clip-path="url(#clip0_22004_8722)">
<path d="M27.9965 55.9931C43.4586 55.9931 55.9931 43.4586 55.9931 27.9965C55.9931 12.5345 43.4586 0 27.9965 0C12.5345 0 0 12.5345 0 27.9965C0 43.4586 12.5345 55.9931 27.9965 55.9931Z" fill="#F41C5E"/>
<path fill-rule="evenodd" clip-rule="evenodd" d="M6.41642 30.1331C11.7924 13.1798 18.0354 13.8735 18.514 14.4423C11.2236 17.869 8.10897 34.42 8.10897 34.4408C7.63728 34.968 5.41753 35.0859 4.64062 34.753C3.33652 33.0466 2.83708 19.957 3.61399 18.3407C3.61399 18.3407 5.34123 17.6887 5.61176 19.7281C5.63909 19.9413 5.63388 20.4502 5.62654 21.1663V21.1663V21.1663C5.60595 23.1765 5.56864 26.8188 6.18751 30.1331C6.19385 30.1587 6.20856 30.1814 6.22931 30.1976C6.25005 30.2139 6.27563 30.2227 6.30196 30.2227C6.3283 30.2227 6.35388 30.2139 6.37462 30.1976C6.39537 30.1814 6.41008 30.1587 6.41642 30.1331ZM14.8584 24.7364C15.2122 24.7364 15.8781 24.4936 15.8781 23.9803C15.8781 23.7514 14.9416 21.5108 13.7624 21.5108C13.5612 21.5369 13.3736 21.6262 13.2265 21.7658C13.0793 21.9055 12.9804 22.0882 12.9439 22.2877C12.9439 22.8912 13.0687 24.7364 14.8584 24.7364ZM38.6235 24.9514C38.6235 25.4647 37.8189 26.0821 37.4582 26.0821C36.2304 26.0821 35.7309 24.1953 35.7309 23.5849C35.7784 23.3979 35.8814 23.2296 36.0262 23.1021C36.171 22.9746 36.351 22.8938 36.5425 22.8704C37.7495 22.8704 38.6235 24.7225 38.6235 24.9514ZM13.9586 26.6144C14.2206 26.9343 14.3666 27.3335 14.3728 27.7469C14.3728 27.8986 14.133 28.9406 13.8813 30.034L13.8813 30.0341L13.8813 30.0343L13.8812 30.0344C13.6035 31.2409 13.3115 32.5098 13.3115 32.7136C13.3007 32.7993 13.3108 32.8864 13.341 32.9673C13.3712 33.0483 13.4206 33.1207 13.4849 33.1783C13.4849 33.1783 13.7138 34.5171 11.9727 34.9472C11.7741 34.9468 11.5777 34.9055 11.3958 34.8257C11.214 34.7459 11.0505 34.6295 10.9157 34.4836C10.7809 34.3377 10.6777 34.1656 10.6125 33.978C10.5473 33.7904 10.5215 33.5914 10.5368 33.3934C10.5493 33.2783 10.562 33.1431 10.5763 32.9905C10.722 31.4414 11.0356 28.1067 12.93 25.985C13.3341 26.0726 13.6966 26.2945 13.9586 26.6144ZM51.9489 26.5469C51.7894 26.5469 51.6923 26.748 51.6923 26.748C49.8055 30.154 48.0991 32.8662 46.6493 32.9911C46.3371 32.9911 46.1637 32.8454 46.1013 32.5124C46.0056 31.7965 46.341 30.4803 46.6432 29.2942C46.8886 28.3313 47.1121 27.4542 47.0655 27.0532C47.0655 26.8027 46.9562 26.7557 46.8098 26.6927C46.7576 26.6703 46.7007 26.6458 46.6423 26.6093C46.5577 26.682 46.481 26.7633 46.4134 26.8521C46.3933 26.8667 46.369 26.8746 46.3441 26.8746C46.3191 26.8746 46.2949 26.8667 46.2747 26.8521C45.438 26.5665 44.5764 26.3598 43.7012 26.2347C44.3949 24.3549 45.7822 20.4218 45.7822 20.068C45.7822 19.187 45.1371 18.8887 44.0411 18.5905C42.771 21.0142 41.7797 23.5739 41.0861 26.2208C40.86 26.4223 40.5902 26.4721 40.3357 26.519C39.9419 26.5915 39.5848 26.6573 39.4837 27.2683C39.6469 27.4394 39.863 27.5995 40.0684 27.7516C40.4043 28.0005 40.7115 28.228 40.7115 28.4475C40.7115 28.5178 40.688 28.6298 40.6521 28.8009C40.5071 29.4916 40.1604 31.1445 40.3438 34.8917C40.656 35.0166 41.9185 33.657 41.9601 33.2547C42.3069 29.6198 43.2295 28.3157 43.2295 28.3157C43.9993 28.339 44.7697 28.2972 45.5325 28.1909V28.2325C45.3244 28.6487 44.0896 31.1945 44.0827 32.3945C44.0827 33.9275 44.5683 34.7877 45.8377 34.9056C46.1073 34.9369 46.3797 34.9369 46.6493 34.9056C48.1377 34.6862 49.4907 33.9194 50.4437 32.7552C50.4604 32.7388 50.4818 32.7281 50.505 32.7247C50.5281 32.7212 50.5517 32.7251 50.5725 32.7359C50.5933 32.7467 50.6101 32.7637 50.6206 32.7846C50.6311 32.8055 50.6347 32.8292 50.631 32.8523C48.758 39.5046 45.1648 41.1764 43.6526 41.5371C43.7012 42.0018 46.3233 41.8631 48.1545 40.3162C50.1737 38.5248 51.6635 36.2145 52.4622 33.6362C52.6634 32.9425 52.8576 32.2488 53.0102 31.5552C53.2682 30.2457 53.4029 28.915 53.4126 27.5804C53.4126 27.3585 52.2056 26.5469 51.9489 26.5469ZM39.4143 33.9899H39.4837C39.5612 33.9822 39.6388 34.0037 39.7012 34.0502C39.7637 34.0967 39.8065 34.1649 39.8213 34.2413C39.836 34.3178 39.8217 34.397 39.781 34.4634C39.7404 34.5299 39.6764 34.5787 39.6016 34.6004C39.0961 34.7846 38.5647 34.8876 38.027 34.9056C36.6532 34.9056 36.3943 33.3359 36.1454 31.8269C36.0839 31.4539 36.023 31.0845 35.946 30.7436C35.9372 30.708 35.9181 30.6757 35.8911 30.6509C35.8642 30.626 35.8305 30.6096 35.7943 30.6037C35.7581 30.5978 35.721 30.6026 35.6875 30.6176C35.6541 30.6326 35.6257 30.6571 35.6061 30.6881C34.5933 32.2974 32.7759 34.8987 30.9862 34.8987C30.3827 34.8987 29.7584 34.2397 29.4463 33.8859C29.4299 33.8717 29.409 33.864 29.3873 33.864C29.3657 33.864 29.3447 33.8717 29.3284 33.8859C29.2917 33.9071 29.2496 33.9318 29.2027 33.9593C28.6812 34.2655 27.5671 34.9195 26.8034 34.9195C26.3197 34.93 25.8487 34.764 25.4785 34.4525C25.1082 34.141 24.8641 33.7053 24.7917 33.2269C24.7834 33.1902 24.7652 33.1565 24.7392 33.1292C24.7132 33.102 24.6802 33.0824 24.6439 33.0725C24.6076 33.0625 24.5693 33.0626 24.533 33.0727C24.4968 33.0828 24.4639 33.1025 24.438 33.1298C23.8345 33.8165 22.5651 34.9195 21.3234 34.9195C20.8257 34.9011 20.351 34.7047 19.9857 34.3662C19.6204 34.0276 19.3887 33.5692 19.3326 33.0743C19.2909 30.154 21.0529 28.6348 22.8911 27.081C22.9003 27.081 22.9091 27.0773 22.9156 27.0708C22.9221 27.0643 22.9258 27.0555 22.9258 27.0463C22.9258 27.0371 22.9221 27.0283 22.9156 27.0218C22.9091 27.0153 22.9003 27.0116 22.8911 27.0116C21.6282 27.1755 20.3563 27.2589 19.0828 27.2613C18.5443 29.1537 18.1433 31.0825 17.8828 33.0327C17.8134 33.4697 16.7868 34.975 15.8365 34.9195C15.6503 32.392 15.7878 29.8511 16.2457 27.3585C16.2457 27.1692 16.081 26.9601 15.9121 26.7458C15.7344 26.5202 15.5521 26.2887 15.5521 26.0682C15.7553 25.4253 16.0424 25.2817 16.3056 25.1501C16.4286 25.0886 16.5464 25.0297 16.6481 24.9237C17.6085 22.0726 18.8106 19.3087 20.2413 16.6621C21.4344 16.9881 22.0171 17.5638 21.9477 18.1535C21.9316 18.2798 21.7359 18.7974 21.4617 19.5227C20.908 20.987 20.0343 23.2977 19.6725 24.9445C19.8334 24.967 20.1895 24.9776 20.6654 24.9918C22.2403 25.0386 25.1283 25.1244 26.6092 25.8116C26.7274 25.8661 26.8213 25.9625 26.8728 26.0821C26.8851 26.1287 26.8878 26.1774 26.8806 26.2251C26.8735 26.2729 26.8566 26.3186 26.8311 26.3596C26.5433 26.6667 26.2351 26.9541 25.9086 27.2197C22.4402 28.3573 21.2402 31.4095 21.7465 32.5194C21.7667 32.564 21.7972 32.6033 21.8354 32.634C21.8736 32.6647 21.9185 32.686 21.9664 32.6961C22.0144 32.7063 22.0641 32.705 22.1114 32.6923C22.1588 32.6797 22.2025 32.6561 22.239 32.6234C22.6539 32.2457 23.4363 31.3456 24.2021 30.4648C25.1521 29.372 26.0764 28.3088 26.2415 28.3088C26.9768 28.3088 27.9549 29.6337 27.9549 29.8626C27.9549 30.0774 27.7016 30.8421 27.4765 31.522C27.309 32.0277 27.1571 32.4864 27.1364 32.6373C26.9421 33.9691 28.5723 33.3726 29.0231 33.1853C29.0566 33.1731 29.0849 33.1501 29.1038 33.1199C29.1227 33.0898 29.1309 33.0542 29.1272 33.0188C28.8636 27.3099 31.5412 20.1374 33.1366 17.8829C33.8719 17.9592 35.3286 18.4656 34.9956 19.5408C34.9897 19.5632 34.9334 19.6928 34.839 19.9104C34.0547 21.7184 30.6357 29.5994 31.5273 32.4847C31.5448 32.5369 31.5755 32.5837 31.6165 32.6205C31.6574 32.6573 31.7072 32.6828 31.761 32.6947C31.8148 32.7066 31.8707 32.7043 31.9233 32.6882C31.976 32.6721 32.0235 32.6426 32.0614 32.6026C33.3555 31.2397 34.5061 29.7474 35.4951 28.1492C35.5239 28.0983 35.5674 28.0572 35.6199 28.0313C36.0536 27.7812 36.5208 27.5944 37.0073 27.4764C38.4984 27.2768 38.5056 29.2133 38.5123 31.0256C38.5179 32.5518 38.5232 33.9899 39.4143 33.9899Z" fill="white"/>
</g>
<defs>
<clipPath id="clip0_22004_8722">
<rect width="56" height="56" fill="white"/>
</clipPath>
</defs>
</svg>
